<svg xmlns="http://www.w3.org/2000/svg" fill="none" viewBox="0 0 596 596"><path fill="url(#a)" d="M0 0h596v596H0z"/><path fill="#FDFDFD" d="m218.4 339.7-3.4-67.1 199.6-124 77.5 23-164.2 100.8a40.7 40.7 0 0 0-68.3 42l-41.2 25.3Z"/><path fill="#F5F5F5" d="M462 299.6c0 90.8-73.6 164.4-164.4 164.4a163.7 163.7 0 0 1-79.4-20.4l-15.5 9.6a179.7 179.7 0 0 0 95 27A180.5 180.5 0 0 0 454 209.4l-13.7 8.3a163.7 163.7 0 0 1 21.8 81.8Zm-328.8 0c0-90.8 73.6-164.4 164.4-164.4a163.7 163.7 0 0 1 79 20.2l15.5-9.6a179.7 179.7 0 0 0-94.5-26.7A180.5 180.5 0 0 0 141 389.4l13.8-8.2a163.7 163.7 0 0 1-21.6-81.6Z"/><path fill="#FDFDFD" fill-rule="evenodd" d="M521 299.5a223.5 223.5 0 0 1-389.1 150l45 14.1a202.7 202.7 0 0 0 120.6 39.5 203.6 203.6 0 0 0 176.3-305.5l17-10.2A222.5 222.5 0 0 1 521 299.5Zm-102.9-164 45 14a223.5 223.5 0 0 0-359 262.1l17-10.3A202.7 202.7 0 0 1 94 299.5 203.6 203.6 0 0 1 297.5 95.9a202.7 202.7 0 0 1 120.7 39.6Zm-315.3 292 77.5 23 199.6-124-3.4-67.2-41.1 25.2a40.7 40.7 0 0 1-68.4 42l-164.2 101Z" clip-rule="evenodd"/><path fill="#FAFAFA" d="M297.5 503.1a203.6 203.6 0 0 0 176.3-305.5L454 209.5a179.7 179.7 0 0 1 24.1 90.1 180.5 180.5 0 0 1-275.4 153.6L183 465.5l-6-1.9a202.7 202.7 0 0 0 120.6 39.5Zm0-407.2a203.6 203.6 0 0 0-176.4 305.4l19.9-11.9a179.7 179.7 0 0 1-23.9-89.8 180.5 180.5 0 0 1 275-153.8l19.8-12.3 6.2 2a202.7 202.7 0 0 0-120.6-39.6Z"/><path fill="#FDFDFD" d="M278.7 299.5a18.8 18.8 0 1 1 37.6 0 18.8 18.8 0 0 1-37.6 0Z"/><path fill="#FAFAFA" fill-rule="evenodd" d="M270 299.4a27.4 27.4 0 1 1 54.7 0 27.4 27.4 0 0 1-54.7 0Zm27.5-18.7a18.8 18.8 0 1 0 0 37.6 18.8 18.8 0 0 0 0-37.6Z" clip-rule="evenodd"/><defs><linearGradient id="a" x1="97.8" x2="1089.6" y1="121.1" y2="1303.8" gradientUnits="userSpaceOnUse"><stop stop-color="#061834"/><stop offset=".3" stop-color="#071765"/><stop offset="1" stop-color="#477BFF"/><stop offset="1" stop-color="#477BFF"/></linearGradient></defs></svg>