<svg width="1024" height="1024" viewBox="0 0 1024 1024" fill="none" xmlns="http://www.w3.org/2000/svg">
<path d="M1021.71 463.181C1040.1 656.5 947.123 851.89 767.957 955.331C537.048 1088.65 245.447 1021.62 94.4303 808.187L203.169 745.407C319.163 899.285 534.395 946.022 705.536 847.214C822.677 779.583 891.094 659.967 898.471 534.331L1021.71 463.181Z" fill="#0E43C9"/>
<path fill-rule="evenodd" clip-rule="evenodd" d="M129.01 542.763C50.1613 588.286 23.1459 689.109 68.669 767.957L430.891 558.828C476.414 637.677 577.237 664.692 656.086 619.169L894.99 481.237C973.839 435.714 1000.85 334.891 955.331 256.043L593.109 465.172C547.586 386.323 446.763 359.308 367.914 404.831L129.01 542.763Z" fill="#0E43C9"/>
<path d="M929.57 215.813C778.553 2.37829 486.952 -64.6467 256.043 68.669C76.8775 172.11 -16.1031 367.5 2.29334 560.819L125.529 489.669C132.906 364.033 201.323 244.417 318.464 176.786C489.605 77.9777 704.837 124.715 820.831 278.593L929.57 215.813Z" fill="#0E43C9"/>
</svg>
